{
	"asset":{
		"generator":"Khronos glTF Blender I/O v5.0.21",
		"version":"2.0"
	},
	"extensionsUsed":[
		"KHR_materials_transmission",
		"KHR_texture_transform",
		"KHR_materials_variants"
	],
	"extensionsRequired":[
		"KHR_texture_transform"
	],
	"extensions":{
		"KHR_materials_variants":{
			"variants":[
				{
					"name":"Surgical White"
				},
				{
					"name":"Midnight Gold"
				},
				{
					"name":"Commerce Green"
				},
				{
					"name":"Khronos Red"
				}
			]
		}
	},
	"scene":0,
	"scenes":[
		{
			"name":"Scene",
			"nodes":[
				0,
				1,
				2,
				3,
				4,
				5,
				6,
				7,
				12,
				13
			]
		}
	],
	"nodes":[
		{
			"mesh":0,
			"name":"Backplate Khronos",
			"rotation":[
				-0.7071065902709961,
				0,
				0,
				0.7071069478988647
			],
			"translation":[
				0,
				0,
				0.009999999776482582
			]
		},
		{
			"mesh":1,
			"name":"Band Carbon Fiber"
		},
		{
			"mesh":2,
			"name":"Band Plastic"
		},
		{
			"mesh":3,
			"name":"Bezel Frame"
		},
		{
			"mesh":4,
			"name":"Button Metal"
		},
		{
			"mesh":5,
			"name":"Button Plastic"
		},
		{
			"mesh":6,
			"name":"Clasp DGG"
		},
		{
			"mesh":7,
			"name":"Glass Face"
		},
		{
			"mesh":8,
			"name":"Hand Hours",
			"translation":[
				-0.11272376775741577,
				0.7524163126945496,
				-0.1582604944705963
			]
		},
		{
			"mesh":9,
			"name":"Hand Minutes",
			"translation":[
				-0.11272376775741577,
				0.7524163126945496,
				-0.1582604944705963
			]
		},
		{
			"mesh":10,
			"name":"Hand Seconds",
			"translation":[
				-0.11272376775741577,
				0.7580093741416931,
				-0.1582604944705963
			]
		},
		{
			"mesh":11,
			"name":"Hand Setting",
			"translation":[
				-0.11272376775741577,
				0.7524163126945496,
				-0.1582604944705963
			]
		},
		{
			"children":[
				8,
				9,
				10,
				11
			],
			"name":"Hands",
			"rotation":[
				-0.70710688829422,
				0,
				0,
				0.7071066498756409
			],
			"translation":[
				0.11272376775741577,
				0.1582605242729187,
				0.7580093741416931
			]
		},
		{
			"mesh":12,
			"name":"Watch Face"
		}
	],
	"animations":[
		{
			"channels":[
				{
					"sampler":0,
					"target":{
						"node":10,
						"path":"rotation"
					}
				}
			],
			"name":"Anim_0",
			"samplers":[
				{
					"input":67,
					"interpolation":"LINEAR",
					"output":68
				}
			]
		}
	],
	"materials":[
		{
			"name":"Backplate Khronos",
			"pbrMetallicRoughness":{
				"baseColorTexture":{
					"extensions":{
						"KHR_texture_transform":{
							"offset":[
								-0.5,
								-3.5999999046325684
							],
							"scale":[
								2,
								8
							]
						}
					},
					"index":0
				},
				"metallicRoughnessTexture":{
					"extensions":{
						"KHR_texture_transform":{
							"offset":[
								-0.5,
								-3.5999999046325684
							],
							"scale":[
								2,
								8
							]
						}
					},
					"index":1
				}
			}
		},
		{
			"name":"Band Carbon Fiber",
			"normalTexture":{
				"index":2
			},
			"occlusionTexture":{
				"index":3,
				"texCoord":1
			},
			"pbrMetallicRoughness":{
				"baseColorFactor":[
					0.8700000047683716,
					0.8700000047683716,
					0.8700000047683716,
					1
				],
				"metallicFactor":0,
				"roughnessFactor":0.4000000059604645
			}
		},
		{
			"name":"Band Carbon Fiber Gold",
			"normalTexture":{
				"index":4
			},
			"occlusionTexture":{
				"index":5,
				"texCoord":1
			},
			"pbrMetallicRoughness":{
				"baseColorFactor":[
					1,
					0.7200000286102295,
					0.3149999976158142,
					1
				],
				"roughnessFactor":0.4000000059604645
			}
		},
		{
			"name":"Band Carbon Fiber Green",
			"normalTexture":{
				"index":6
			},
			"occlusionTexture":{
				"index":7,
				"texCoord":1
			},
			"pbrMetallicRoughness":{
				"baseColorFactor":[
					0.029999999329447746,
					0.029999999329447746,
					0.029999999329447746,
					1
				],
				"metallicFactor":0,
				"roughnessFactor":0.4000000059604645
			}
		},
		{
			"name":"Band Carbon Fiber Red",
			"normalTexture":{
				"index":8,
				"scale":0.5
			},
			"occlusionTexture":{
				"index":9,
				"texCoord":1
			},
			"pbrMetallicRoughness":{
				"baseColorFactor":[
					0.44999998807907104,
					0.07500000298023224,
					0.07500000298023224,
					1
				],
				"roughnessFactor":0.4000000059604645
			}
		},
		{
			"name":"Band Plastic",
			"occlusionTexture":{
				"index":10
			},
			"pbrMetallicRoughness":{
				"metallicFactor":0,
				"roughnessFactor":0.30000001192092896
			}
		},
		{
			"name":"Band Plastic Gold",
			"occlusionTexture":{
				"index":11
			},
			"pbrMetallicRoughness":{
				"baseColorFactor":[
					0.029999999329447746,
					0.029999999329447746,
					0.029999999329447746,
					1
				],
				"metallicFactor":0,
				"roughnessFactor":0.30000001192092896
			}
		},
		{
			"name":"Band Plastic Green",
			"occlusionTexture":{
				"index":12
			},
			"pbrMetallicRoughness":{
				"baseColorFactor":[
					0.029999999329447746,
					0.029999999329447746,
					0.029999999329447746,
					1
				],
				"metallicFactor":0,
				"roughnessFactor":0.30000001192092896
			}
		},
		{
			"name":"Band Plastic Red",
			"occlusionTexture":{
				"index":13
			},
			"pbrMetallicRoughness":{
				"baseColorFactor":[
					0.8700000047683716,
					0.8700000047683716,
					0.8700000047683716,
					1
				],
				"metallicFactor":0,
				"roughnessFactor":0.30000001192092896
			}
		},
		{
			"name":"Bezel Frame",
			"occlusionTexture":{
				"index":14
			},
			"pbrMetallicRoughness":{
				"metallicFactor":0,
				"roughnessFactor":0.30000001192092896
			}
		},
		{
			"name":"Bezel Frame Gold",
			"occlusionTexture":{
				"index":15
			},
			"pbrMetallicRoughness":{
				"baseColorFactor":[
					1,
					0.7200000286102295,
					0.3149999976158142,
					1
				],
				"roughnessFactor":0.30000001192092896
			}
		},
		{
			"name":"Bezel Frame Green",
			"occlusionTexture":{
				"index":16
			},
			"pbrMetallicRoughness":{
				"baseColorFactor":[
					0.17499999701976776,
					0.33000001311302185,
					0.20000000298023224,
					1
				],
				"metallicFactor":0,
				"roughnessFactor":0.30000001192092896
			}
		},
		{
			"name":"Bezel Frame Red",
			"occlusionTexture":{
				"index":17
			},
			"pbrMetallicRoughness":{
				"baseColorFactor":[
					0.7910000085830688,
					0.07400000095367432,
					0.07400000095367432,
					1
				],
				"metallicFactor":0,
				"roughnessFactor":0.30000001192092896
			}
		},
		{
			"name":"Button Metal",
			"occlusionTexture":{
				"index":18
			},
			"pbrMetallicRoughness":{
				"baseColorFactor":[
					0.7620000243186951,
					0.7429999709129333,
					0.7870000004768372,
					1
				],
				"roughnessFactor":0.30000001192092896
			}
		},
		{
			"name":"Button Metal Green",
			"occlusionTexture":{
				"index":19
			},
			"pbrMetallicRoughness":{
				"baseColorFactor":[
					0.20000000298023224,
					0.20000000298023224,
					0.20000000298023224,
					1
				],
				"roughnessFactor":0.30000001192092896
			}
		},
		{
			"name":"Button Metal Red",
			"occlusionTexture":{
				"index":20
			},
			"pbrMetallicRoughness":{
				"baseColorFactor":[
					0.05000000074505806,
					0.05000000074505806,
					0.05000000074505806,
					1
				],
				"metallicFactor":0,
				"roughnessFactor":0.20000000298023224
			}
		},
		{
			"name":"Button Plastic",
			"occlusionTexture":{
				"index":21
			},
			"pbrMetallicRoughness":{
				"baseColorFactor":[
					0.8600000143051147,
					0,
					0,
					1
				],
				"metallicFactor":0,
				"roughnessFactor":0.30000001192092896
			}
		},
		{
			"name":"Button Plastic Gold",
			"occlusionTexture":{
				"index":22
			},
			"pbrMetallicRoughness":{
				"baseColorFactor":[
					0.029999999329447746,
					0.029999999329447746,
					0.029999999329447746,
					1
				],
				"metallicFactor":0,
				"roughnessFactor":0.30000001192092896
			}
		},
		{
			"name":"Button Plastic Green",
			"occlusionTexture":{
				"index":23
			},
			"pbrMetallicRoughness":{
				"baseColorFactor":[
					0.029999999329447746,
					0.029999999329447746,
					0.029999999329447746,
					1
				],
				"metallicFactor":0,
				"roughnessFactor":0.30000001192092896
			}
		},
		{
			"name":"Button Plastic Red",
			"occlusionTexture":{
				"index":24
			},
			"pbrMetallicRoughness":{
				"baseColorFactor":[
					0.8299999833106995,
					0.8299999833106995,
					0.8299999833106995,
					1
				],
				"metallicFactor":0,
				"roughnessFactor":0.30000001192092896
			}
		},
		{
			"name":"Clasp DGG",
			"occlusionTexture":{
				"index":25,
				"texCoord":1
			},
			"pbrMetallicRoughness":{
				"baseColorTexture":{
					"extensions":{
						"KHR_texture_transform":{
							"offset":[
								-0.15000000596046448,
								-0.4000000059604645
							],
							"scale":[
								1.25,
								1.75
							]
						}
					},
					"index":26
				},
				"metallicRoughnessTexture":{
					"extensions":{
						"KHR_texture_transform":{
							"offset":[
								-0.15000000596046448,
								-0.4000000059604645
							],
							"scale":[
								1.25,
								1.75
							]
						}
					},
					"index":27
				}
			}
		},
		{
			"extensions":{
				"KHR_materials_transmission":{
					"transmissionFactor":1
				}
			},
			"name":"Glass Face",
			"pbrMetallicRoughness":{
				"metallicFactor":0,
				"roughnessFactor":0
			}
		},
		{
			"name":"Hand Plastic",
			"pbrMetallicRoughness":{
				"baseColorFactor":[
					0.029999999329447746,
					0.029999999329447746,
					0.029999999329447746,
					1
				],
				"metallicFactor":0,
				"roughnessFactor":0.30000001192092896
			}
		},
		{
			"name":"Hand Metal",
			"pbrMetallicRoughness":{
				"baseColorFactor":[
					0.7620000243186951,
					0.7429999709129333,
					0.7870000004768372,
					1
				],
				"roughnessFactor":0.30000001192092896
			}
		},
		{
			"name":"Hand Color",
			"pbrMetallicRoughness":{
				"baseColorFactor":[
					0.8600000143051147,
					0,
					0,
					1
				],
				"metallicFactor":0,
				"roughnessFactor":0.30000001192092896
			}
		},
		{
			"name":"Hand Color Gold",
			"pbrMetallicRoughness":{
				"baseColorFactor":[
					1,
					0.7200000286102295,
					0.3149999976158142,
					1
				],
				"roughnessFactor":0.30000001192092896
			}
		},
		{
			"name":"Hand Color Green",
			"pbrMetallicRoughness":{
				"baseColorFactor":[
					0.17499999701976776,
					0.33000001311302185,
					0.20000000298023224,
					1
				],
				"metallicFactor":0,
				"roughnessFactor":0.30000001192092896
			}
		},
		{
			"name":"Hand Color Red",
			"pbrMetallicRoughness":{
				"baseColorFactor":[
					0.7910000085830688,
					0.07400000095367432,
					0.07400000095367432,
					1
				],
				"metallicFactor":0,
				"roughnessFactor":0.30000001192092896
			}
		},
		{
			"name":"Watch Face",
			"occlusionTexture":{
				"index":28
			},
			"pbrMetallicRoughness":{
				"baseColorTexture":{
					"index":29
				},
				"metallicRoughnessTexture":{
					"index":28
				}
			}
		}
	],
	"meshes":[
		{
			"name":"Backplate Khronos",
			"primitives":[
				{
					"attributes":{
						"POSITION":0,
						"NORMAL":1,
						"TEXCOORD_0":2
					},
					"indices":3,
					"material":0
				}
			]
		},
		{
			"name":"Band Carbon Fiber",
			"primitives":[
				{
					"attributes":{
						"POSITION":4,
						"NORMAL":5,
						"TEXCOORD_0":6,
						"TEXCOORD_1":7
					},
					"extensions":{
						"KHR_materials_variants":{
							"mappings":[
								{
									"material":1,
									"variants":[
										0
									]
								},
								{
									"material":2,
									"variants":[
										1
									]
								},
								{
									"material":3,
									"variants":[
										2
									]
								},
								{
									"material":4,
									"variants":[
										3
									]
								}
							]
						}
					},
					"indices":8,
					"material":2
				}
			]
		},
		{
			"name":"Band Plastic",
			"primitives":[
				{
					"attributes":{
						"POSITION":9,
						"NORMAL":10,
						"TEXCOORD_0":11
					},
					"extensions":{
						"KHR_materials_variants":{
							"mappings":[
								{
									"material":5,
									"variants":[
										0
									]
								},
								{
									"material":6,
									"variants":[
										1
									]
								},
								{
									"material":7,
									"variants":[
										2
									]
								},
								{
									"material":8,
									"variants":[
										3
									]
								}
							]
						}
					},
					"indices":12,
					"material":6
				}
			]
		},
		{
			"name":"Bezel Frame",
			"primitives":[
				{
					"attributes":{
						"POSITION":13,
						"NORMAL":14,
						"TEXCOORD_0":15
					},
					"extensions":{
						"KHR_materials_variants":{
							"mappings":[
								{
									"material":9,
									"variants":[
										0
									]
								},
								{
									"material":10,
									"variants":[
										1
									]
								},
								{
									"material":11,
									"variants":[
										2
									]
								},
								{
									"material":12,
									"variants":[
										3
									]
								}
							]
						}
					},
					"indices":16,
					"material":10
				}
			]
		},
		{
			"name":"Button Metal",
			"primitives":[
				{
					"attributes":{
						"POSITION":17,
						"NORMAL":18,
						"TEXCOORD_0":19
					},
					"extensions":{
						"KHR_materials_variants":{
							"mappings":[
								{
									"material":13,
									"variants":[
										0
									]
								},
								{
									"material":13,
									"variants":[
										1
									]
								},
								{
									"material":14,
									"variants":[
										2
									]
								},
								{
									"material":15,
									"variants":[
										3
									]
								}
							]
						}
					},
					"indices":20,
					"material":13
				}
			]
		},
		{
			"name":"Button Plastic",
			"primitives":[
				{
					"attributes":{
						"POSITION":21,
						"NORMAL":22,
						"TEXCOORD_0":23
					},
					"extensions":{
						"KHR_materials_variants":{
							"mappings":[
								{
									"material":16,
									"variants":[
										0
									]
								},
								{
									"material":17,
									"variants":[
										1
									]
								},
								{
									"material":18,
									"variants":[
										2
									]
								},
								{
									"material":19,
									"variants":[
										3
									]
								}
							]
						}
					},
					"indices":24,
					"material":17
				}
			]
		},
		{
			"name":"Clasp DGG",
			"primitives":[
				{
					"attributes":{
						"POSITION":25,
						"NORMAL":26,
						"TEXCOORD_0":27,
						"TEXCOORD_1":28
					},
					"indices":29,
					"material":20
				}
			]
		},
		{
			"name":"Glass Face",
			"primitives":[
				{
					"attributes":{
						"POSITION":30,
						"NORMAL":31
					},
					"indices":32,
					"material":21
				}
			]
		},
		{
			"name":"Hand Hours",
			"primitives":[
				{
					"attributes":{
						"POSITION":33,
						"NORMAL":34
					},
					"indices":35,
					"material":22
				},
				{
					"attributes":{
						"POSITION":36,
						"NORMAL":37
					},
					"indices":38,
					"material":23
				},
				{
					"attributes":{
						"POSITION":39,
						"NORMAL":40
					},
					"extensions":{
						"KHR_materials_variants":{
							"mappings":[
								{
									"material":24,
									"variants":[
										0
									]
								},
								{
									"material":25,
									"variants":[
										1
									]
								},
								{
									"material":26,
									"variants":[
										2
									]
								},
								{
									"material":27,
									"variants":[
										3
									]
								}
							]
						}
					},
					"indices":41,
					"material":25
				}
			]
		},
		{
			"name":"Hand Minutes",
			"primitives":[
				{
					"attributes":{
						"POSITION":42,
						"NORMAL":43
					},
					"indices":44,
					"material":22
				},
				{
					"attributes":{
						"POSITION":45,
						"NORMAL":46
					},
					"indices":47,
					"material":23
				},
				{
					"attributes":{
						"POSITION":48,
						"NORMAL":49
					},
					"extensions":{
						"KHR_materials_variants":{
							"mappings":[
								{
									"material":24,
									"variants":[
										0
									]
								},
								{
									"material":25,
									"variants":[
										1
									]
								},
								{
									"material":26,
									"variants":[
										2
									]
								},
								{
									"material":27,
									"variants":[
										3
									]
								}
							]
						}
					},
					"indices":50,
					"material":25
				}
			]
		},
		{
			"name":"Hand Seconds",
			"primitives":[
				{
					"attributes":{
						"POSITION":51,
						"NORMAL":52
					},
					"indices":53,
					"material":22
				},
				{
					"attributes":{
						"POSITION":54,
						"NORMAL":55
					},
					"indices":56,
					"material":23
				}
			]
		},
		{
			"name":"Hand Setting",
			"primitives":[
				{
					"attributes":{
						"POSITION":57,
						"NORMAL":58
					},
					"indices":59,
					"material":22
				},
				{
					"attributes":{
						"POSITION":60,
						"NORMAL":61
					},
					"indices":62,
					"material":23
				}
			]
		},
		{
			"name":"Watch Face",
			"primitives":[
				{
					"attributes":{
						"POSITION":63,
						"NORMAL":64,
						"TEXCOORD_0":65
					},
					"indices":66,
					"material":28
				}
			]
		}
	],
	"textures":[
		{
			"sampler":0,
			"source":0
		},
		{
			"sampler":0,
			"source":1
		},
		{
			"sampler":1,
			"source":2
		},
		{
			"sampler":0,
			"source":3
		},
		{
			"sampler":1,
			"source":2
		},
		{
			"sampler":0,
			"source":3
		},
		{
			"sampler":1,
			"source":2
		},
		{
			"sampler":0,
			"source":3
		},
		{
			"sampler":1,
			"source":2
		},
		{
			"sampler":0,
			"source":3
		},
		{
			"sampler":0,
			"source":3
		},
		{
			"sampler":0,
			"source":3
		},
		{
			"sampler":0,
			"source":3
		},
		{
			"sampler":0,
			"source":3
		},
		{
			"sampler":0,
			"source":3
		},
		{
			"sampler":0,
			"source":3
		},
		{
			"sampler":0,
			"source":3
		},
		{
			"sampler":0,
			"source":3
		},
		{
			"sampler":0,
			"source":3
		},
		{
			"sampler":0,
			"source":3
		},
		{
			"sampler":0,
			"source":3
		},
		{
			"sampler":0,
			"source":3
		},
		{
			"sampler":0,
			"source":3
		},
		{
			"sampler":0,
			"source":3
		},
		{
			"sampler":0,
			"source":3
		},
		{
			"sampler":0,
			"source":3
		},
		{
			"sampler":0,
			"source":4
		},
		{
			"sampler":0,
			"source":5
		},
		{
			"sampler":0,
			"source":6
		},
		{
			"sampler":0,
			"source":7
		}
	],
	"images":[
		{
			"mimeType":"image/png",
			"name":"khronos_basecolor",
			"uri":"textures/khronos_basecolor.png"
		},
		{
			"mimeType":"image/png",
			"name":"khronos_rm",
			"uri":"textures/khronos_rm.png"
		},
		{
			"mimeType":"image/png",
			"name":"carbonfiber_normal",
			"uri":"textures/carbonfiber_normal.png"
		},
		{
			"mimeType":"image/png",
			"name":"band_occlusion",
			"uri":"textures/band_occlusion.png"
		},
		{
			"mimeType":"image/png",
			"name":"dgg_basecolor",
			"uri":"textures/dgg_basecolor.png"
		},
		{
			"mimeType":"image/png",
			"name":"dgg_rm",
			"uri":"textures/dgg_rm.png"
		},
		{
			"mimeType":"image/png",
			"name":"watchface_orm",
			"uri":"textures/watchface_orm.png"
		},
		{
			"mimeType":"image/png",
			"name":"watchface_basecolor",
			"uri":"textures/watchface_basecolor.png"
		}
	],
	"accessors":[
		{
			"bufferView":0,
			"componentType":5126,
			"count":1532,
			"max":[
				1.9142159223556519,
				-0.006587684154510498,
				1.9834370613098145
			],
			"min":[
				-1.983437418937683,
				-0.07103107869625092,
				-1.902249813079834
			],
			"type":"VEC3"
		},
		{
			"bufferView":1,
			"componentType":5126,
			"count":1532,
			"type":"VEC3"
		},
		{
			"bufferView":2,
			"componentType":5126,
			"count":1532,
			"type":"VEC2"
		},
		{
			"bufferView":3,
			"componentType":5123,
			"count":8448,
			"type":"SCALAR"
		},
		{
			"bufferView":4,
			"componentType":5126,
			"count":6263,
			"max":[
				1.0923829078674316,
				2.8639800548553467,
				-1.290797472000122
			],
			"min":[
				-1.0919089317321777,
				-2.952116012573242,
				-5.022368431091309
			],
			"type":"VEC3"
		},
		{
			"bufferView":5,
			"componentType":5126,
			"count":6263,
			"type":"VEC3"
		},
		{
			"bufferView":6,
			"componentType":5126,
			"count":6263,
			"type":"VEC2"
		},
		{
			"bufferView":7,
			"componentType":5126,
			"count":6263,
			"type":"VEC2"
		},
		{
			"bufferView":8,
			"componentType":5123,
			"count":19671,
			"type":"SCALAR"
		},
		{
			"bufferView":9,
			"componentType":5126,
			"count":12139,
			"max":[
				1.6189546585083008,
				2.8585124015808105,
				0.47386249899864197
			],
			"min":[
				-1.6189546585083008,
				-2.9481194019317627,
				-4.938999176025391
			],
			"type":"VEC3"
		},
		{
			"bufferView":10,
			"componentType":5126,
			"count":12139,
			"type":"VEC3"
		},
		{
			"bufferView":11,
			"componentType":5126,
			"count":12139,
			"type":"VEC2"
		},
		{
			"bufferView":12,
			"componentType":5123,
			"count":44688,
			"type":"SCALAR"
		},
		{
			"bufferView":13,
			"componentType":5126,
			"count":14812,
			"max":[
				2.2321672439575195,
				2.175163745880127,
				1.14897882938385
			],
			"min":[
				-2.1385717391967773,
				-2.3730483055114746,
				0.06932593137025833
			],
			"type":"VEC3"
		},
		{
			"bufferView":14,
			"componentType":5126,
			"count":14812,
			"type":"VEC3"
		},
		{
			"bufferView":15,
			"componentType":5126,
			"count":14812,
			"type":"VEC2"
		},
		{
			"bufferView":16,
			"componentType":5123,
			"count":39834,
			"type":"SCALAR"
		},
		{
			"bufferView":17,
			"componentType":5126,
			"count":39689,
			"max":[
				2.235898017883301,
				2.136444330215454,
				1.0669523477554321
			],
			"min":[
				-2.0526697635650635,
				-2.5837090015411377,
				-4.388663291931152
			],
			"type":"VEC3"
		},
		{
			"bufferView":18,
			"componentType":5126,
			"count":39689,
			"type":"VEC3"
		},
		{
			"bufferView":19,
			"componentType":5126,
			"count":39689,
			"type":"VEC2"
		},
		{
			"bufferView":20,
			"componentType":5123,
			"count":116004,
			"type":"SCALAR"
		},
		{
			"bufferView":21,
			"componentType":5126,
			"count":3764,
			"max":[
				2.1830766201019287,
				0.3972466289997101,
				0.9962888956069946
			],
			"min":[
				-2.0752859115600586,
				-0.39924290776252747,
				0.20339958369731903
			],
			"type":"VEC3"
		},
		{
			"bufferView":22,
			"componentType":5126,
			"count":3764,
			"type":"VEC3"
		},
		{
			"bufferView":23,
			"componentType":5126,
			"count":3764,
			"type":"VEC2"
		},
		{
			"bufferView":24,
			"componentType":5123,
			"count":8529,
			"type":"SCALAR"
		},
		{
			"bufferView":25,
			"componentType":5126,
			"count":2427,
			"max":[
				1.2251012325286865,
				-0.5582689046859741,
				-4.009546279907227
			],
			"min":[
				-1.2250986099243164,
				-1.641081690788269,
				-5.032817363739014
			],
			"type":"VEC3"
		},
		{
			"bufferView":26,
			"componentType":5126,
			"count":2427,
			"type":"VEC3"
		},
		{
			"bufferView":27,
			"componentType":5126,
			"count":2427,
			"type":"VEC2"
		},
		{
			"bufferView":28,
			"componentType":5126,
			"count":2427,
			"type":"VEC2"
		},
		{
			"bufferView":29,
			"componentType":5123,
			"count":5646,
			"type":"SCALAR"
		},
		{
			"bufferView":30,
			"componentType":5126,
			"count":64,
			"max":[
				1.3129959106445312,
				1.312996506690979,
				0.9654073715209961
			],
			"min":[
				-1.3129959106445312,
				-1.3129949569702148,
				0.9654073715209961
			],
			"type":"VEC3"
		},
		{
			"bufferView":31,
			"componentType":5126,
			"count":64,
			"type":"VEC3"
		},
		{
			"bufferView":32,
			"componentType":5123,
			"count":186,
			"type":"SCALAR"
		},
		{
			"bufferView":33,
			"componentType":5126,
			"count":59,
			"max":[
				0.29179733991622925,
				-0.731472373008728,
				0.37550896406173706
			],
			"min":[
				-0.5681667923927307,
				-0.7619651556015015,
				-0.23140515387058258
			],
			"type":"VEC3"
		},
		{
			"bufferView":34,
			"componentType":5126,
			"count":59,
			"type":"VEC3"
		},
		{
			"bufferView":35,
			"componentType":5123,
			"count":90,
			"type":"SCALAR"
		},
		{
			"bufferView":36,
			"componentType":5126,
			"count":32,
			"max":[
				-0.030337240546941757,
				-0.7319173812866211,
				0.37591665983200073
			],
			"min":[
				-0.568683922290802,
				-0.7619047164916992,
				-0.021117450669407845
			],
			"type":"VEC3"
		},
		{
			"bufferView":37,
			"componentType":5126,
			"count":32,
			"type":"VEC3"
		},
		{
			"bufferView":38,
			"componentType":5123,
			"count":66,
			"type":"SCALAR"
		},
		{
			"bufferView":39,
			"componentType":5126,
			"count":34,
			"max":[
				-0.07084373384714127,
				-0.7474604249000549,
				0.3530033230781555
			],
			"min":[
				-0.5340310335159302,
				-0.761263370513916,
				0.020138878375291824
			],
			"type":"VEC3"
		},
		{
			"bufferView":40,
			"componentType":5126,
			"count":34,
			"type":"VEC3"
		},
		{
			"bufferView":41,
			"componentType":5123,
			"count":48,
			"type":"SCALAR"
		},
		{
			"bufferView":42,
			"componentType":5126,
			"count":65,
			"max":[
				0.8122986555099487,
				-0.7683590054512024,
				0.6757557392120361
			],
			"min":[
				-0.2886689603328705,
				-0.7999572157859802,
				-0.26294246315956116
			],
			"type":"VEC3"
		},
		{
			"bufferView":43,
			"componentType":5126,
			"count":65,
			"type":"VEC3"
		},
		{
			"bufferView":44,
			"componentType":5123,
			"count":90,
			"type":"SCALAR"
		},
		{
			"bufferView":45,
			"componentType":5126,
			"count":32,
			"max":[
				0.8130558729171753,
				-0.7688530683517456,
				0.6764943599700928
			],
			"min":[
				0.03095575049519539,
				-0.7999231815338135,
				0.006050250958651304
			],
			"type":"VEC3"
		},
		{
			"bufferView":46,
			"componentType":5126,
			"count":32,
			"type":"VEC3"
		},
		{
			"bufferView":47,
			"componentType":5123,
			"count":66,
			"type":"SCALAR"
		},
		{
			"bufferView":48,
			"componentType":5126,
			"count":34,
			"max":[
				0.7738319039344788,
				-0.7854732275009155,
				0.6437283158302307
			],
			"min":[
				0.06305407732725143,
				-0.7992922067642212,
				0.037189725786447525
			],
			"type":"VEC3"
		},
		{
			"bufferView":49,
			"componentType":5126,
			"count":34,
			"type":"VEC3"
		},
		{
			"bufferView":50,
			"componentType":5123,
			"count":48,
			"type":"SCALAR"
		},
		{
			"bufferView":51,
			"componentType":5126,
			"count":274,
			"max":[
				0.06774582713842392,
				-0.7988214492797852,
				0.06861699372529984
			],
			"min":[
				-0.06903164088726044,
				-0.8451228141784668,
				-0.7269235849380493
			],
			"type":"VEC3"
		},
		{
			"bufferView":52,
			"componentType":5126,
			"count":274,
			"type":"VEC3"
		},
		{
			"bufferView":53,
			"componentType":5123,
			"count":594,
			"type":"SCALAR"
		},
		{
			"bufferView":54,
			"componentType":5126,
			"count":113,
			"max":[
				0.04767073318362236,
				-0.8051238656044006,
				1.043459177017212
			],
			"min":[
				-0.03908752650022507,
				-0.816801130771637,
				0.06437231600284576
			],
			"type":"VEC3"
		},
		{
			"bufferView":55,
			"componentType":5126,
			"count":113,
			"type":"VEC3"
		},
		{
			"bufferView":56,
			"componentType":5123,
			"count":234,
			"type":"SCALAR"
		},
		{
			"bufferView":57,
			"componentType":5126,
			"count":62,
			"max":[
				-0.39799049496650696,
				-0.6760087013244629,
				0.4783564805984497
			],
			"min":[
				-0.5574951171875,
				-0.6851669549942017,
				0.28020957112312317
			],
			"type":"VEC3"
		},
		{
			"bufferView":58,
			"componentType":5126,
			"count":62,
			"type":"VEC3"
		},
		{
			"bufferView":59,
			"componentType":5123,
			"count":102,
			"type":"SCALAR"
		},
		{
			"bufferView":60,
			"componentType":5126,
			"count":85,
			"max":[
				-0.36803650856018066,
				-0.665307343006134,
				0.5278578996658325
			],
			"min":[
				-0.5874809622764587,
				-0.6853373050689697,
				0.06899653375148773
			],
			"type":"VEC3"
		},
		{
			"bufferView":61,
			"componentType":5126,
			"count":85,
			"type":"VEC3"
		},
		{
			"bufferView":62,
			"componentType":5123,
			"count":162,
			"type":"SCALAR"
		},
		{
			"bufferView":63,
			"componentType":5126,
			"count":24078,
			"max":[
				1.5036423206329346,
				1.5037060976028442,
				1.023971676826477
			],
			"min":[
				-1.503689169883728,
				-1.5035054683685303,
				0.5696666240692139
			],
			"type":"VEC3"
		},
		{
			"bufferView":64,
			"componentType":5126,
			"count":24078,
			"type":"VEC3"
		},
		{
			"bufferView":65,
			"componentType":5126,
			"count":24078,
			"type":"VEC2"
		},
		{
			"bufferView":66,
			"componentType":5123,
			"count":55500,
			"type":"SCALAR"
		},
		{
			"bufferView":67,
			"componentType":5126,
			"count":1441,
			"max":[
				60
			],
			"min":[
				0
			],
			"type":"SCALAR"
		},
		{
			"bufferView":68,
			"componentType":5126,
			"count":1441,
			"type":"VEC4"
		}
	],
	"bufferViews":[
		{
			"buffer":0,
			"byteLength":18384,
			"byteOffset":0,
			"target":34962
		},
		{
			"buffer":0,
			"byteLength":18384,
			"byteOffset":18384,
			"target":34962
		},
		{
			"buffer":0,
			"byteLength":12256,
			"byteOffset":36768,
			"target":34962
		},
		{
			"buffer":0,
			"byteLength":16896,
			"byteOffset":49024,
			"target":34963
		},
		{
			"buffer":0,
			"byteLength":75156,
			"byteOffset":65920,
			"target":34962
		},
		{
			"buffer":0,
			"byteLength":75156,
			"byteOffset":141076,
			"target":34962
		},
		{
			"buffer":0,
			"byteLength":50104,
			"byteOffset":216232,
			"target":34962
		},
		{
			"buffer":0,
			"byteLength":50104,
			"byteOffset":266336,
			"target":34962
		},
		{
			"buffer":0,
			"byteLength":39342,
			"byteOffset":316440,
			"target":34963
		},
		{
			"buffer":0,
			"byteLength":145668,
			"byteOffset":355784,
			"target":34962
		},
		{
			"buffer":0,
			"byteLength":145668,
			"byteOffset":501452,
			"target":34962
		},
		{
			"buffer":0,
			"byteLength":97112,
			"byteOffset":647120,
			"target":34962
		},
		{
			"buffer":0,
			"byteLength":89376,
			"byteOffset":744232,
			"target":34963
		},
		{
			"buffer":0,
			"byteLength":177744,
			"byteOffset":833608,
			"target":34962
		},
		{
			"buffer":0,
			"byteLength":177744,
			"byteOffset":1011352,
			"target":34962
		},
		{
			"buffer":0,
			"byteLength":118496,
			"byteOffset":1189096,
			"target":34962
		},
		{
			"buffer":0,
			"byteLength":79668,
			"byteOffset":1307592,
			"target":34963
		},
		{
			"buffer":0,
			"byteLength":476268,
			"byteOffset":1387260,
			"target":34962
		},
		{
			"buffer":0,
			"byteLength":476268,
			"byteOffset":1863528,
			"target":34962
		},
		{
			"buffer":0,
			"byteLength":317512,
			"byteOffset":2339796,
			"target":34962
		},
		{
			"buffer":0,
			"byteLength":232008,
			"byteOffset":2657308,
			"target":34963
		},
		{
			"buffer":0,
			"byteLength":45168,
			"byteOffset":2889316,
			"target":34962
		},
		{
			"buffer":0,
			"byteLength":45168,
			"byteOffset":2934484,
			"target":34962
		},
		{
			"buffer":0,
			"byteLength":30112,
			"byteOffset":2979652,
			"target":34962
		},
		{
			"buffer":0,
			"byteLength":17058,
			"byteOffset":3009764,
			"target":34963
		},
		{
			"buffer":0,
			"byteLength":29124,
			"byteOffset":3026824,
			"target":34962
		},
		{
			"buffer":0,
			"byteLength":29124,
			"byteOffset":3055948,
			"target":34962
		},
		{
			"buffer":0,
			"byteLength":19416,
			"byteOffset":3085072,
			"target":34962
		},
		{
			"buffer":0,
			"byteLength":19416,
			"byteOffset":3104488,
			"target":34962
		},
		{
			"buffer":0,
			"byteLength":11292,
			"byteOffset":3123904,
			"target":34963
		},
		{
			"buffer":0,
			"byteLength":768,
			"byteOffset":3135196,
			"target":34962
		},
		{
			"buffer":0,
			"byteLength":768,
			"byteOffset":3135964,
			"target":34962
		},
		{
			"buffer":0,
			"byteLength":372,
			"byteOffset":3136732,
			"target":34963
		},
		{
			"buffer":0,
			"byteLength":708,
			"byteOffset":3137104,
			"target":34962
		},
		{
			"buffer":0,
			"byteLength":708,
			"byteOffset":3137812,
			"target":34962
		},
		{
			"buffer":0,
			"byteLength":180,
			"byteOffset":3138520,
			"target":34963
		},
		{
			"buffer":0,
			"byteLength":384,
			"byteOffset":3138700,
			"target":34962
		},
		{
			"buffer":0,
			"byteLength":384,
			"byteOffset":3139084,
			"target":34962
		},
		{
			"buffer":0,
			"byteLength":132,
			"byteOffset":3139468,
			"target":34963
		},
		{
			"buffer":0,
			"byteLength":408,
			"byteOffset":3139600,
			"target":34962
		},
		{
			"buffer":0,
			"byteLength":408,
			"byteOffset":3140008,
			"target":34962
		},
		{
			"buffer":0,
			"byteLength":96,
			"byteOffset":3140416,
			"target":34963
		},
		{
			"buffer":0,
			"byteLength":780,
			"byteOffset":3140512,
			"target":34962
		},
		{
			"buffer":0,
			"byteLength":780,
			"byteOffset":3141292,
			"target":34962
		},
		{
			"buffer":0,
			"byteLength":180,
			"byteOffset":3142072,
			"target":34963
		},
		{
			"buffer":0,
			"byteLength":384,
			"byteOffset":3142252,
			"target":34962
		},
		{
			"buffer":0,
			"byteLength":384,
			"byteOffset":3142636,
			"target":34962
		},
		{
			"buffer":0,
			"byteLength":132,
			"byteOffset":3143020,
			"target":34963
		},
		{
			"buffer":0,
			"byteLength":408,
			"byteOffset":3143152,
			"target":34962
		},
		{
			"buffer":0,
			"byteLength":408,
			"byteOffset":3143560,
			"target":34962
		},
		{
			"buffer":0,
			"byteLength":96,
			"byteOffset":3143968,
			"target":34963
		},
		{
			"buffer":0,
			"byteLength":3288,
			"byteOffset":3144064,
			"target":34962
		},
		{
			"buffer":0,
			"byteLength":3288,
			"byteOffset":3147352,
			"target":34962
		},
		{
			"buffer":0,
			"byteLength":1188,
			"byteOffset":3150640,
			"target":34963
		},
		{
			"buffer":0,
			"byteLength":1356,
			"byteOffset":3151828,
			"target":34962
		},
		{
			"buffer":0,
			"byteLength":1356,
			"byteOffset":3153184,
			"target":34962
		},
		{
			"buffer":0,
			"byteLength":468,
			"byteOffset":3154540,
			"target":34963
		},
		{
			"buffer":0,
			"byteLength":744,
			"byteOffset":3155008,
			"target":34962
		},
		{
			"buffer":0,
			"byteLength":744,
			"byteOffset":3155752,
			"target":34962
		},
		{
			"buffer":0,
			"byteLength":204,
			"byteOffset":3156496,
			"target":34963
		},
		{
			"buffer":0,
			"byteLength":1020,
			"byteOffset":3156700,
			"target":34962
		},
		{
			"buffer":0,
			"byteLength":1020,
			"byteOffset":3157720,
			"target":34962
		},
		{
			"buffer":0,
			"byteLength":324,
			"byteOffset":3158740,
			"target":34963
		},
		{
			"buffer":0,
			"byteLength":288936,
			"byteOffset":3159064,
			"target":34962
		},
		{
			"buffer":0,
			"byteLength":288936,
			"byteOffset":3448000,
			"target":34962
		},
		{
			"buffer":0,
			"byteLength":192624,
			"byteOffset":3736936,
			"target":34962
		},
		{
			"buffer":0,
			"byteLength":111000,
			"byteOffset":3929560,
			"target":34963
		},
		{
			"buffer":0,
			"byteLength":5764,
			"byteOffset":4040560
		},
		{
			"buffer":0,
			"byteLength":23056,
			"byteOffset":4046324
		}
	],
	"samplers":[
		{
			"magFilter":9729,
			"minFilter":9987,
			"wrapS":33071,
			"wrapT":33071
		},
		{
			"magFilter":9729,
			"minFilter":9987
		}
	],
	"buffers":[
		{
			"byteLength":4069380,
			"uri":"watch.bin"
		}
	]
}
