{
  "accessors": [
    {
      "bufferView": 2,
      "componentType": 5126,
      "count": 17184,
      "max": [
        152.32164001464844,
        113.94296264648438,
        195.9624786376953
      ],
      "min": [
        -152.32142639160156,
        3.3665037155151367,
        76.54523468017578
      ],
      "type": "VEC3"
    },
    {
      "bufferView": 2,
      "byteOffset": 206208,
      "componentType": 5126,
      "count": 17184,
      "max": [
        0.9999977350234985,
        0.9999977350234985,
        1.0
      ],
      "min": [
        -0.9999977350234985,
        -0.9999977350234985,
        -1.0
      ],
      "type": "VEC3"
    },
    {
      "bufferView": 1,
      "componentType": 5126,
      "count": 17184,
      "max": [
        0.9969429969787598,
        0.9999979734420776
      ],
      "min": [
        0.0,
        0.0
      ],
      "type": "VEC2"
    },
    {
      "bufferView": 0,
      "componentType": 5125,
      "count": 72714,
      "type": "SCALAR"
    },
    {
      "bufferView": 2,
      "byteOffset": 412416,
      "componentType": 5126,
      "count": 1886,
      "max": [
        169.9964141845703,
        117.39119720458984,
        208.0397491455078
      ],
      "min": [
        -169.99620056152344,
        0.5496140122413635,
        75.46472930908203
      ],
      "type": "VEC3"
    },
    {
      "bufferView": 2,
      "byteOffset": 435048,
      "componentType": 5126,
      "count": 1886,
      "max": [
        0.9999977350234985,
        0.9999977350234985,
        1.0
      ],
      "min": [
        -0.9999977350234985,
        -0.9999977350234985,
        -1.0
      ],
      "type": "VEC3"
    },
    {
      "bufferView": 3,
      "componentType": 5126,
      "count": 1886,
      "max": [
        1.0,
        0.6811650395393372,
        0.9999977350234985,
        1.0
      ],
      "min": [
        -1.0,
        -0.6947317123413086,
        -0.9999976754188538,
        -1.0
      ],
      "type": "VEC4"
    },
    {
      "bufferView": 1,
      "byteOffset": 137472,
      "componentType": 5126,
      "count": 1886,
      "max": [
        0.9953479766845703,
        0.9932060241699219
      ],
      "min": [
        0.0042119999416172504,
        0.007361054420471191
      ],
      "type": "VEC2"
    },
    {
      "bufferView": 0,
      "byteOffset": 290856,
      "componentType": 5125,
      "count": 3600,
      "type": "SCALAR"
    },
    {
      "bufferView": 2,
      "byteOffset": 457680,
      "componentType": 5126,
      "count": 2624,
      "max": [
        151.609130859375,
        85.75035858154297,
        193.57908630371094
      ],
      "min": [
        -151.60887145996094,
        0.1669570952653885,
        45.46918487548828
      ],
      "type": "VEC3"
    },
    {
      "bufferView": 2,
      "byteOffset": 489168,
      "componentType": 5126,
      "count": 2624,
      "max": [
        0.9999977350234985,
        0.9576743245124817,
        1.0
      ],
      "min": [
        -0.9999977350234985,
        -0.9999977350234985,
        -1.0
      ],
      "type": "VEC3"
    },
    {
      "bufferView": 1,
      "byteOffset": 152560,
      "componentType": 5126,
      "count": 2624,
      "max": [
        0.9866889715194702,
        0.9796069860458374
      ],
      "min": [
        0.00646300008520484,
        0.00913703441619873
      ],
      "type": "VEC2"
    },
    {
      "bufferView": 0,
      "byteOffset": 305256,
      "componentType": 5125,
      "count": 8922,
      "type": "SCALAR"
    },
    {
      "bufferView": 2,
      "byteOffset": 520656,
      "componentType": 5126,
      "count": 1018,
      "max": [
        169.73683166503906,
        94.13493347167969,
        193.0410614013672
      ],
      "min": [
        -169.73609924316406,
        0.20150522887706757,
        -8.185263633728027
      ],
      "type": "VEC3"
    },
    {
      "bufferView": 2,
      "byteOffset": 532872,
      "componentType": 5126,
      "count": 1018,
      "max": [
        0.9999977350234985,
        0.9999977350234985,
        1.0
      ],
      "min": [
        -0.9999977350234985,
        -0.9999977350234985,
        -0.00215631234459579
      ],
      "type": "VEC3"
    },
    {
      "bufferView": 1,
      "byteOffset": 173552,
      "componentType": 5126,
      "count": 1018,
      "max": [
        0.9999979734420776,
        0.9999979734420776
      ],
      "min": [
        0.0,
        0.007969021797180176
      ],
      "type": "VEC2"
    },
    {
      "bufferView": 0,
      "byteOffset": 340944,
      "componentType": 5125,
      "count": 1680,
      "type": "SCALAR"
    }
  ],
  "asset": {
    "extras": {
      "author": "Mehdi Shahsavan (https://sketchfab.com/ahmagh2e)",
      "license": "CC-BY-4.0 (http://creativecommons.org/licenses/by/4.0/)",
      "source": "https://sketchfab.com/3d-models/wooden-stairs-21-mb-3c8dbec255b9447ca9a909ab9eefe244",
      "title": "Wooden Stairs_21_MB"
    },
    "generator": "Sketchfab-16.59.0",
    "version": "2.0"
  },
  "bufferViews": [
    {
      "buffer": 0,
      "byteLength": 347664,
      "name": "floatBufferViews",
      "target": 34963
    },
    {
      "buffer": 0,
      "byteLength": 181696,
      "byteOffset": 347664,
      "byteStride": 8,
      "name": "floatBufferViews",
      "target": 34962
    },
    {
      "buffer": 0,
      "byteLength": 545088,
      "byteOffset": 529360,
      "byteStride": 12,
      "name": "floatBufferViews",
      "target": 34962
    },
    {
      "buffer": 0,
      "byteLength": 30176,
      "byteOffset": 1074448,
      "byteStride": 16,
      "name": "floatBufferViews",
      "target": 34962
    }
  ],
  "buffers": [
    {
      "byteLength": 1104624,
      "uri": "scene.bin"
    }
  ],
  "images": [
    {
      "uri": "textures/material_baseColor.png"
    },
    {
      "uri": "textures/material_metallicRoughness.png"
    },
    {
      "uri": "textures/material_1_baseColor.png"
    },
    {
      "uri": "textures/material_1_metallicRoughness.png"
    },
    {
      "uri": "textures/material_1_normal.png"
    },
    {
      "uri": "textures/material_2_baseColor.png"
    },
    {
      "uri": "textures/material_2_metallicRoughness.png"
    },
    {
      "uri": "textures/material_3_baseColor.png"
    },
    {
      "uri": "textures/material_3_metallicRoughness.png"
    }
  ],
  "materials": [
    {
      "doubleSided": true,
      "name": "material",
      "pbrMetallicRoughness": {
        "baseColorTexture": {
          "index": 0
        },
        "metallicFactor": 0.0,
        "metallicRoughnessTexture": {
          "index": 1
        }
      }
    },
    {
      "doubleSided": true,
      "name": "material_1",
      "normalTexture": {
        "index": 4
      },
      "pbrMetallicRoughness": {
        "baseColorTexture": {
          "index": 2
        },
        "metallicFactor": 0.0,
        "metallicRoughnessTexture": {
          "index": 3
        }
      }
    },
    {
      "doubleSided": true,
      "name": "material_2",
      "pbrMetallicRoughness": {
        "baseColorTexture": {
          "index": 5
        },
        "metallicRoughnessTexture": {
          "index": 6
        }
      }
    },
    {
      "doubleSided": true,
      "name": "material_3",
      "pbrMetallicRoughness": {
        "baseColorTexture": {
          "index": 7
        },
        "metallicFactor": 0.0,
        "metallicRoughnessTexture": {
          "index": 8
        }
      }
    }
  ],
  "meshes": [
    {
      "name": "Base_00_0",
      "primitives": [
        {
          "attributes": {
            "NORMAL": 1,
            "POSITION": 0,
            "TEXCOORD_0": 2
          },
          "indices": 3,
          "material": 0,
          "mode": 4
        }
      ]
    },
    {
      "name": "Base_01_0",
      "primitives": [
        {
          "attributes": {
            "NORMAL": 5,
            "POSITION": 4,
            "TANGENT": 6,
            "TEXCOORD_0": 7
          },
          "indices": 8,
          "material": 1,
          "mode": 4
        }
      ]
    },
    {
      "name": "Base_02_0",
      "primitives": [
        {
          "attributes": {
            "NORMAL": 10,
            "POSITION": 9,
            "TEXCOORD_0": 11
          },
          "indices": 12,
          "material": 2,
          "mode": 4
        }
      ]
    },
    {
      "name": "Base_03_0",
      "primitives": [
        {
          "attributes": {
            "NORMAL": 14,
            "POSITION": 13,
            "TEXCOORD_0": 15
          },
          "indices": 16,
          "material": 3,
          "mode": 4
        }
      ]
    }
  ],
  "nodes": [
    {
      "children": [
        1
      ],
      "matrix": [
        1.0,
        0.0,
        0.0,
        0.0,
        0.0,
        2.220446049250313e-16,
        -1.0,
        0.0,
        0.0,
        1.0,
        2.220446049250313e-16,
        0.0,
        0.0,
        0.0,
        0.0,
        1.0
      ],
      "name": "Sketchfab_model"
    },
    {
      "children": [
        2
      ],
      "matrix": [
        0.009999999776482582,
        0.0,
        0.0,
        0.0,
        0.0,
        0.0,
        0.009999999776482582,
        0.0,
        0.0,
        -0.009999999776482582,
        0.0,
        0.0,
        0.0,
        0.0,
        0.0,
        1.0
      ],
      "name": "180a91a5b4af4722a3602cd5f297b771.fbx"
    },
    {
      "children": [
        3,
        5
      ],
      "name": "RootNode"
    },
    {
      "children": [
        4
      ],
      "matrix": [
        0.3581446301257053,
        -0.3803642107570112,
        -0.8526754899065164,
        0.0,
        0.1472966935538277,
        0.924836778667023,
        -0.35068592343137156,
        0.0,
        0.9219740278230356,
        -5.551115123125783e-17,
        0.3872517166130687,
        0.0,
        -250.615478515625,
        339.3673400878906,
        723.8157348632813,
        1.0
      ],
      "name": "CINEMA_4D_Editor"
    },
    {
      "name": "Object_4"
    },
    {
      "children": [
        6,
        7,
        8,
        9
      ],
      "name": "Base"
    },
    {
      "mesh": 0,
      "name": "Base_00_0"
    },
    {
      "mesh": 1,
      "name": "Base_01_0"
    },
    {
      "mesh": 2,
      "name": "Base_02_0"
    },
    {
      "mesh": 3,
      "name": "Base_03_0"
    }
  ],
  "samplers": [
    {
      "magFilter": 9729,
      "minFilter": 9987,
      "wrapS": 10497,
      "wrapT": 10497
    }
  ],
  "scene": 0,
  "scenes": [
    {
      "name": "Sketchfab_Scene",
      "nodes": [
        0
      ]
    }
  ],
  "textures": [
    {
      "sampler": 0,
      "source": 0
    },
    {
      "sampler": 0,
      "source": 1
    },
    {
      "sampler": 0,
      "source": 2
    },
    {
      "sampler": 0,
      "source": 3
    },
    {
      "sampler": 0,
      "source": 4
    },
    {
      "sampler": 0,
      "source": 5
    },
    {
      "sampler": 0,
      "source": 6
    },
    {
      "sampler": 0,
      "source": 7
    },
    {
      "sampler": 0,
      "source": 8
    }
  ]
}
