{
	"asset":{
		"generator":"Khronos glTF Blender I/O v5.0.21",
		"version":"2.0"
	},
	"extensionsUsed":[
		"KHR_materials_specular"
	],
	"scene":0,
	"scenes":[
		{
			"name":"Scene",
			"nodes":[
				41
			]
		}
	],
	"nodes":[
		{
			"name":"Bone.005",
			"rotation":[
				-0.41986772418022156,
				-5.543724057588406e-08,
				-0.027202770113945007,
				0.9071775674819946
			],
			"scale":[
				0.9999999403953552,
				0.9999998807907104,
				0.9999998807907104
			],
			"translation":[
				2.7881469577550888e-08,
				0.5309615731239319,
				-1.825392246246338e-07
			]
		},
		{
			"children":[
				0
			],
			"name":"Bone.004",
			"rotation":[
				-0.33682194352149963,
				-8.16241918499827e-09,
				-0.02182234637439251,
				0.9413154125213623
			],
			"scale":[
				1,
				1,
				1.0000001192092896
			],
			"translation":[
				-1.043081283569336e-07,
				1.152366280555725,
				-3.166496753692627e-08
			]
		},
		{
			"children":[
				1
			],
			"name":"Bone.003",
			"rotation":[
				-0.039814624935388565,
				-9.441831849699156e-08,
				0.03154776990413666,
				0.9987089037895203
			],
			"scale":[
				1.0000001192092896,
				1.0000001192092896,
				1.0000001192092896
			],
			"translation":[
				-5.029141902923584e-08,
				1.1250733137130737,
				-2.60770320892334e-08
			]
		},
		{
			"children":[
				2
			],
			"name":"Bone.002",
			"rotation":[
				0.08285623043775558,
				0.00536692189052701,
				0.06673084944486618,
				0.9943103790283203
			],
			"scale":[
				0.9999999403953552,
				0.9999999403953552,
				0.9999999403953552
			],
			"translation":[
				4.308833467803197e-08,
				0.9265655875205994,
				-5.799250857307925e-09
			]
		},
		{
			"children":[
				3
			],
			"name":"leftLeg",
			"rotation":[
				0.09663606435060501,
				-0.9923754930496216,
				-0.02715206705033779,
				0.07151969522237778
			],
			"scale":[
				0.9999999403953552,
				1.0000001192092896,
				1
			],
			"translation":[
				-0.3970579504966736,
				1.6735910177230835,
				0.12137609720230103
			]
		},
		{
			"name":"Bone.010",
			"rotation":[
				-0.13009963929653168,
				-0.06928826868534088,
				0.22834812104701996,
				0.962356686592102
			],
			"scale":[
				1.0000001192092896,
				0.9999999403953552,
				1
			],
			"translation":[
				3.3155083656311035e-07,
				0.32833975553512573,
				0
			]
		},
		{
			"children":[
				5
			],
			"name":"Bone.009",
			"rotation":[
				0.31360316276550293,
				0.11778401583433151,
				0.13631638884544373,
				0.932307779788971
			],
			"scale":[
				0.9999998211860657,
				1,
				1
			],
			"translation":[
				1.862645149230957e-09,
				1.2189706563949585,
				-5.960464477539063e-08
			]
		},
		{
			"name":"Bone.012",
			"rotation":[
				-0.05941712483763695,
				-0.07331646978855133,
				0.162286639213562,
				0.9822206497192383
			],
			"scale":[
				0.9999998211860657,
				0.9999999403953552,
				1
			],
			"translation":[
				-6.705522537231445e-08,
				0.28131231665611267,
				-4.0978193283081055e-08
			]
		},
		{
			"children":[
				7
			],
			"name":"Bone.011",
			"rotation":[
				0.15152475237846375,
				0.10197541117668152,
				0.07240001112222672,
				0.9805098176002502
			],
			"scale":[
				1,
				0.9999998211860657,
				1
			],
			"translation":[
				1.862645149230957e-09,
				1.2189706563949585,
				-5.960464477539063e-08
			]
		},
		{
			"name":"Bone.014",
			"rotation":[
				0.02539391815662384,
				-0.007894793525338173,
				0.1546458750963211,
				0.9876120686531067
			],
			"scale":[
				1,
				0.9999999403953552,
				0.9999999403953552
			],
			"translation":[
				8.195638656616211e-08,
				0.3241191804409027,
				-4.470348358154297e-08
			]
		},
		{
			"children":[
				9
			],
			"name":"Bone.013",
			"rotation":[
				-0.004995318595319986,
				0.02044958993792534,
				0.06358166038990021,
				0.9977546334266663
			],
			"scale":[
				0.9999999403953552,
				0.9999999403953552,
				0.9999998807907104
			],
			"translation":[
				1.862645149230957e-09,
				1.2189706563949585,
				-5.960464477539063e-08
			]
		},
		{
			"name":"Bone.016",
			"rotation":[
				0.10751251131296158,
				0.039492830634117126,
				0.16164666414260864,
				0.980179488658905
			],
			"scale":[
				0.9999998807907104,
				0.9999999403953552,
				1
			],
			"translation":[
				4.237517714500427e-08,
				0.35081684589385986,
				-1.862645149230957e-08
			]
		},
		{
			"children":[
				11
			],
			"name":"Bone.015",
			"rotation":[
				-0.15622352063655853,
				-0.03940114006400108,
				0.04607093334197998,
				0.9858596920967102
			],
			"scale":[
				0.9999998807907104,
				0.9999998807907104,
				0.9999998211860657
			],
			"translation":[
				1.862645149230957e-09,
				1.2189706563949585,
				-5.960464477539063e-08
			]
		},
		{
			"name":"Bone.018",
			"rotation":[
				0.40069714188575745,
				-0.05574789643287659,
				0.01744978129863739,
				0.91434645652771
			],
			"scale":[
				1.0000001192092896,
				1,
				1
			],
			"translation":[
				-9.313225746154785e-08,
				0.3407883048057556,
				1.862645149230957e-07
			]
		},
		{
			"children":[
				13
			],
			"name":"Bone.017",
			"rotation":[
				-0.5003657341003418,
				0.0417063906788826,
				0.23380246758460999,
				0.8326050043106079
			],
			"scale":[
				0.9999998807907104,
				1,
				0.9999998211860657
			],
			"translation":[
				1.862645149230957e-09,
				1.2189706563949585,
				-5.960464477539063e-08
			]
		},
		{
			"children":[
				6,
				8,
				10,
				12,
				14
			],
			"name":"leftArmForearm",
			"rotation":[
				-0.12997013330459595,
				0.00619423296302557,
				-0.030704647302627563,
				0.991023063659668
			],
			"scale":[
				0.9999999403953552,
				1,
				0.9999998211860657
			],
			"translation":[
				7.636845111846924e-08,
				1.125006079673767,
				-5.21540641784668e-08
			]
		},
		{
			"children":[
				15
			],
			"name":"leftArmBiceps",
			"rotation":[
				-0.205693781375885,
				0.12333269417285919,
				0.36726486682891846,
				0.8986632823944092
			],
			"scale":[
				1.0000001192092896,
				0.9999998807907104,
				0.9999998807907104
			],
			"translation":[
				-2.4028122425079346e-07,
				0.6270355582237244,
				-2.9802322387695312e-08
			]
		},
		{
			"children":[
				16
			],
			"name":"leftArm",
			"rotation":[
				-0.5908515453338623,
				0.7815216779708862,
				-0.16458062827587128,
				0.1141563281416893
			],
			"scale":[
				1.0000001192092896,
				0.9999998211860657,
				1
			],
			"translation":[
				-0.2983825206756592,
				-0.9537456631660461,
				-0.029721936210989952
			]
		},
		{
			"name":"Bone.026",
			"rotation":[
				-0.10527285933494568,
				-0.045337386429309845,
				-0.24080394208431244,
				0.9637819528579712
			],
			"scale":[
				0.9999999403953552,
				0.9999999403953552,
				1
			],
			"translation":[
				-1.7136335372924805e-07,
				0.3283398151397705,
				-2.9802322387695312e-08
			]
		},
		{
			"children":[
				18
			],
			"name":"Bone.025",
			"rotation":[
				0.3399284780025482,
				-0.18883876502513885,
				-0.03711702302098274,
				0.9205492734909058
			],
			"scale":[
				1,
				1,
				0.9999999403953552
			],
			"translation":[
				-2.1606683731079102e-07,
				1.2189704179763794,
				-5.960464477539063e-08
			]
		},
		{
			"name":"Bone.028",
			"rotation":[
				-0.006903131026774645,
				-0.054281312972307205,
				-0.17268380522727966,
				0.9834562540054321
			],
			"scale":[
				0.9999998807907104,
				1,
				1.0000001192092896
			],
			"translation":[
				-3.0919909477233887e-07,
				0.2813122868537903,
				-5.587935447692871e-08
			]
		},
		{
			"children":[
				20
			],
			"name":"Bone.027",
			"rotation":[
				0.16782161593437195,
				-0.0711829736828804,
				-0.006118293385952711,
				0.9832250475883484
			],
			"scale":[
				1,
				0.9999998211860657,
				0.9999998211860657
			],
			"translation":[
				-2.1606683731079102e-07,
				1.2189704179763794,
				-5.960464477539063e-08
			]
		},
		{
			"name":"Bone.030",
			"rotation":[
				0.08339443057775497,
				-0.036814529448747635,
				-0.1326863020658493,
				0.9869571924209595
			],
			"scale":[
				0.9999999403953552,
				1,
				1.0000001192092896
			],
			"translation":[
				7.82310962677002e-08,
				0.3241192102432251,
				-7.450580596923828e-09
			]
		},
		{
			"children":[
				22
			],
			"name":"Bone.029",
			"rotation":[
				0.020810581743717194,
				0.012332966551184654,
				-0.06028665974736214,
				0.9978879690170288
			],
			"scale":[
				1,
				0.9999999403953552,
				0.9999999403953552
			],
			"translation":[
				-2.1606683731079102e-07,
				1.2189704179763794,
				-5.960464477539063e-08
			]
		},
		{
			"name":"Bone.032",
			"rotation":[
				0.17237822711467743,
				-0.030513178557157516,
				-0.08929856866598129,
				0.9805001020431519
			],
			"scale":[
				1.0000001192092896,
				1.0000001192092896,
				1.0000001192092896
			],
			"translation":[
				1.5459954738616943e-07,
				0.35081687569618225,
				-5.4016709327697754e-08
			]
		},
		{
			"children":[
				24
			],
			"name":"Bone.031",
			"rotation":[
				-0.12200743705034256,
				0.09785740077495575,
				-0.10790017992258072,
				0.9817818999290466
			],
			"scale":[
				0.9999999403953552,
				1,
				0.9999998807907104
			],
			"translation":[
				-2.1606683731079102e-07,
				1.2189704179763794,
				-5.960464477539063e-08
			]
		},
		{
			"name":"Bone.034",
			"rotation":[
				0.29057183861732483,
				0.05987715348601341,
				0.2764609456062317,
				0.9140853881835938
			],
			"scale":[
				0.9999998807907104,
				1,
				1.0000001192092896
			],
			"translation":[
				1.4901161193847656e-08,
				0.3407881259918213,
				-6.705522537231445e-08
			]
		},
		{
			"children":[
				26
			],
			"name":"Bone.033",
			"rotation":[
				-0.2862953841686249,
				0.13342563807964325,
				-0.47229671478271484,
				0.8229023814201355
			],
			"scale":[
				1,
				0.9999998211860657,
				1
			],
			"translation":[
				-2.1606683731079102e-07,
				1.2189704179763794,
				-5.960464477539063e-08
			]
		},
		{
			"children":[
				19,
				21,
				23,
				25,
				27
			],
			"name":"rightArmForearm",
			"rotation":[
				-0.1335284262895584,
				0.15469391644001007,
				0.0022748655173927546,
				0.9788947105407715
			],
			"scale":[
				0.9999999403953552,
				0.9999999403953552,
				0.9999998211860657
			],
			"translation":[
				1.909211277961731e-07,
				1.1250061988830566,
				7.450580596923828e-09
			]
		},
		{
			"children":[
				28
			],
			"name":"rightArmBiceps",
			"rotation":[
				-0.41957759857177734,
				0.7078618407249451,
				-0.033884938806295395,
				0.567219614982605
			],
			"scale":[
				1.0000001192092896,
				0.9999998211860657,
				1
			],
			"translation":[
				-1.7881393432617188e-07,
				0.6270354390144348,
				-1.043081283569336e-07
			]
		},
		{
			"children":[
				29
			],
			"name":"rightArm",
			"rotation":[
				0.13138186931610107,
				0.5588525533676147,
				-0.5968477129936218,
				0.5605315566062927
			],
			"scale":[
				1,
				1.000000238418579,
				1.000000238418579
			],
			"translation":[
				0.30710461735725403,
				-0.9518213272094727,
				-0.07514198869466782
			]
		},
		{
			"name":"Bone.039",
			"rotation":[
				-0.41986772418022156,
				-7.18630914775531e-08,
				-0.027202656492590904,
				0.9071775674819946
			],
			"scale":[
				1.0000001192092896,
				1,
				1.0000001192092896
			],
			"translation":[
				-2.9802322387695312e-08,
				0.5309621095657349,
				-1.5273690223693848e-07
			]
		},
		{
			"children":[
				31
			],
			"name":"Bone.038",
			"rotation":[
				-0.33682194352149963,
				-7.865603635082152e-08,
				-0.021822188049554825,
				0.9413154721260071
			],
			"scale":[
				0.9999999403953552,
				0.9999999403953552,
				0.9999999403953552
			],
			"translation":[
				-7.078051567077637e-08,
				1.152365803718567,
				7.450580596923828e-09
			]
		},
		{
			"children":[
				32
			],
			"name":"Bone.037",
			"rotation":[
				-0.0355045422911644,
				0.0025697993114590645,
				-0.036330342292785645,
				0.9987056255340576
			],
			"scale":[
				1.0000001192092896,
				1.0000001192092896,
				1.0000001192092896
			],
			"translation":[
				1.862645149230957e-08,
				1.125073790550232,
				2.9802322387695312e-08
			]
		},
		{
			"children":[
				33
			],
			"name":"Bone.036",
			"rotation":[
				0.09115294367074966,
				-0.01730843260884285,
				-0.05485711619257927,
				0.9941741228103638
			],
			"scale":[
				1.0000001192092896,
				1,
				1
			],
			"translation":[
				-9.313225746154785e-10,
				0.9265653491020203,
				-9.313225746154785e-09
			]
		},
		{
			"children":[
				34
			],
			"name":"rightLeg",
			"rotation":[
				-0.09350278228521347,
				-0.9922903776168823,
				-0.027073726058006287,
				0.07670797407627106
			],
			"scale":[
				0.9999999403953552,
				1,
				1
			],
			"translation":[
				0.4519359767436981,
				1.7183761596679688,
				-0.09084433317184448
			]
		},
		{
			"name":"Bone.021",
			"rotation":[
				0.16454873979091644,
				0.0022192085161805153,
				-0.08740165084600449,
				0.9824865460395813
			],
			"scale":[
				1.0000001192092896,
				1,
				0.9999998807907104
			],
			"translation":[
				2.7008354663848877e-08,
				0.3052024245262146,
				9.89530235528946e-09
			]
		},
		{
			"children":[
				36
			],
			"name":"Bone.020",
			"rotation":[
				-0.33280622959136963,
				-0.006419572979211807,
				0.14067894220352173,
				0.9324206709861755
			],
			"scale":[
				0.9999998807907104,
				1,
				1.0000001192092896
			],
			"translation":[
				3.725290298461914e-09,
				0.959780216217041,
				1.5832483768463135e-08
			]
		},
		{
			"children":[
				37
			],
			"name":"head",
			"rotation":[
				-0.9827300310134888,
				-0.026721959933638573,
				0.1435985565185547,
				0.1136096715927124
			],
			"scale":[
				1,
				1.0000001192092896,
				1.0000028610229492
			],
			"translation":[
				0.005046048201620579,
				-0.2955126464366913,
				-0.04486311599612236
			]
		},
		{
			"children":[
				4,
				17,
				30,
				35,
				38
			],
			"name":"root",
			"rotation":[
				7.275957614183426e-12,
				5.456746166032644e-12,
				1.45519117589199e-11,
				1
			],
			"scale":[
				1,
				1.0000001192092896,
				1.0000001192092896
			],
			"translation":[
				-9.350156204845916e-10,
				-7.52668398718015e-08,
				-3.890420430252561e-09
			]
		},
		{
			"mesh":0,
			"name":"FinalBaseMesh",
			"skin":0
		},
		{
			"children":[
				40,
				39
			],
			"name":"Armature",
			"rotation":[
				0.037457358092069626,
				-0.02727610059082508,
				0.9989257454872131,
				0.0005633353721350431
			],
			"scale":[
				2.637741804122925,
				2.637741804122925,
				2.637741804122925
			],
			"translation":[
				0.016822610050439835,
				4.272943496704102,
				0
			]
		}
	],
	"materials":[
		{
			"doubleSided":true,
			"extensions":{
				"KHR_materials_specular":{
					"specularFactor":0
				}
			},
			"name":"default",
			"pbrMetallicRoughness":{
				"baseColorFactor":[
					0.800000011920929,
					0.800000011920929,
					0.800000011920929,
					1
				],
				"metallicFactor":0
			}
		}
	],
	"meshes":[
		{
			"name":"FinalBaseMesh",
			"primitives":[
				{
					"attributes":{
						"POSITION":0,
						"NORMAL":1,
						"JOINTS_0":2,
						"WEIGHTS_0":3
					},
					"indices":4,
					"material":0
				}
			]
		}
	],
	"skins":[
		{
			"inverseBindMatrices":5,
			"joints":[
				39,
				4,
				3,
				2,
				1,
				0,
				17,
				16,
				15,
				6,
				5,
				8,
				7,
				10,
				9,
				12,
				11,
				14,
				13,
				30,
				29,
				28,
				19,
				18,
				21,
				20,
				23,
				22,
				25,
				24,
				27,
				26,
				35,
				34,
				33,
				32,
				31,
				38,
				37,
				36
			],
			"name":"Armature"
		}
	],
	"accessors":[
		{
			"bufferView":0,
			"componentType":5126,
			"count":24461,
			"max":[
				5.842499732971191,
				10.61409854888916,
				1.9170000553131104
			],
			"min":[
				-5.842499732971191,
				-10.126598358154297,
				-1.853101134300232
			],
			"type":"VEC3"
		},
		{
			"bufferView":1,
			"componentType":5126,
			"count":24461,
			"type":"VEC3"
		},
		{
			"bufferView":2,
			"componentType":5121,
			"count":24461,
			"type":"VEC4"
		},
		{
			"bufferView":3,
			"componentType":5126,
			"count":24461,
			"type":"VEC4"
		},
		{
			"bufferView":4,
			"componentType":5123,
			"count":146754,
			"type":"SCALAR"
		},
		{
			"bufferView":5,
			"componentType":5126,
			"count":40,
			"type":"MAT4"
		}
	],
	"bufferViews":[
		{
			"buffer":0,
			"byteLength":293532,
			"byteOffset":0,
			"target":34962
		},
		{
			"buffer":0,
			"byteLength":293532,
			"byteOffset":293532,
			"target":34962
		},
		{
			"buffer":0,
			"byteLength":97844,
			"byteOffset":587064,
			"target":34962
		},
		{
			"buffer":0,
			"byteLength":391376,
			"byteOffset":684908,
			"target":34962
		},
		{
			"buffer":0,
			"byteLength":293508,
			"byteOffset":1076284,
			"target":34963
		},
		{
			"buffer":0,
			"byteLength":2560,
			"byteOffset":1369792
		}
	],
	"buffers":[
		{
			"byteLength":1372352,
			"uri":"riggedModel.bin"
		}
	]
}
