{
	"asset":{
		"generator":"Khronos glTF Blender I/O v5.0.21",
		"version":"2.0"
	},
	"scene":0,
	"scenes":[
		{
			"name":"Scene",
			"nodes":[
				30
			]
		}
	],
	"nodes":[
		{
			"name":"86749b7564dd47ad9d0cebd08454c8ed.fbx",
			"scale":[
				0.0006276792264543474,
				0.0006276792846620083,
				0.0006276792846620083
			],
			"translation":[
				-0.01309027336537838,
				0.05548219755291939,
				-4.249469757080078
			]
		},
		{
			"name":"ANDROID_17",
			"rotation":[
				-0.7071068286895752,
				0,
				0,
				0.7071068286895752
			],
			"scale":[
				1.2726383209228516,
				1.0682909488677979,
				1.4868963956832886
			],
			"translation":[
				-0.01309027336537838,
				0.05547779053449631,
				-90.19770812988281
			]
		},
		{
			"name":"Bone",
			"rotation":[
				1.7763568394002505e-15,
				0,
				0,
				1
			],
			"translation":[
				9.313225746154785e-10,
				3.2110136771734687e-09,
				4.792623826688214e-07
			]
		},
		{
			"name":"Bone.011",
			"rotation":[
				0.07800492644309998,
				-0.000442614866187796,
				-0.00012768362648785114,
				0.9969528913497925
			],
			"scale":[
				1,
				1,
				0.9999998211860657
			],
			"translation":[
				8.167262421920896e-09,
				0.5747141242027283,
				2.421438694000244e-08
			]
		},
		{
			"children":[
				3
			],
			"name":"Bone.010",
			"rotation":[
				0.055486924946308136,
				-0.004783500451594591,
				0.034051861613988876,
				0.9978671073913574
			],
			"translation":[
				-2.136715693268343e-09,
				0.49637216329574585,
				-9.121498578679166e-08
			]
		},
		{
			"children":[
				4
			],
			"name":"Bone.009",
			"rotation":[
				-0.10825368762016296,
				0.0016976608894765377,
				-0.020793765783309937,
				0.9939043521881104
			],
			"translation":[
				1.6495334875799017e-08,
				0.566331684589386,
				7.450580596923828e-09
			]
		},
		{
			"children":[
				5
			],
			"name":"Bone.008",
			"rotation":[
				0.16749273240566254,
				0.0244104266166687,
				-0.15561453998088837,
				0.9732083678245544
			],
			"scale":[
				1,
				1,
				0.9999999403953552
			],
			"translation":[
				-9.524228516966105e-08,
				0.4405030906200409,
				-4.842877388000488e-08
			]
		},
		{
			"children":[
				6
			],
			"name":"Bone.002",
			"rotation":[
				-0.15395264327526093,
				-0.02968737483024597,
				0.1755925863981247,
				0.9718973636627197
			],
			"scale":[
				0.9999999403953552,
				1,
				1
			],
			"translation":[
				-0.17088159918785095,
				0.43128979206085205,
				-5.875060793414377e-08
			]
		},
		{
			"name":"Bone.007",
			"rotation":[
				0.06336020678281784,
				-5.196425263420679e-05,
				-0.021161632612347603,
				0.997766375541687
			],
			"translation":[
				-3.705645212903619e-08,
				0.5319483280181885,
				-6.402842700481415e-09
			]
		},
		{
			"children":[
				8
			],
			"name":"Bone.006",
			"rotation":[
				0.06358541548252106,
				0.0005592840607278049,
				-0.006928827613592148,
				0.9979522228240967
			],
			"scale":[
				0.9999998807907104,
				1,
				0.9999998211860657
			],
			"translation":[
				-5.820766091346741e-09,
				0.5267225503921509,
				-8.847564458847046e-08
			]
		},
		{
			"children":[
				9
			],
			"name":"Bone.005",
			"rotation":[
				-0.11528633534908295,
				-0.0008626499329693615,
				0.012090371921658516,
				0.9932583570480347
			],
			"scale":[
				0.9999998807907104,
				1.0000001192092896,
				0.9999999403953552
			],
			"translation":[
				-2.682486410776619e-08,
				0.5742181539535522,
				6.2282197177410126e-09
			]
		},
		{
			"children":[
				10
			],
			"name":"Bone.004",
			"rotation":[
				0.1728495955467224,
				-0.023961439728736877,
				0.14854781329631805,
				0.9733870625495911
			],
			"scale":[
				1.0000001192092896,
				0.9999999403953552,
				1
			],
			"translation":[
				-4.3059117160737514e-08,
				0.4359114170074463,
				1.1920928955078125e-07
			]
		},
		{
			"children":[
				11
			],
			"name":"Bone.003",
			"rotation":[
				-0.16005998849868774,
				0.030195944011211395,
				-0.17494939267635345,
				0.971010684967041
			],
			"scale":[
				0.9999999403953552,
				1,
				1
			],
			"translation":[
				0.17997130751609802,
				0.43080878257751465,
				-5.8771632893694914e-08
			]
		},
		{
			"children":[
				7,
				12
			],
			"name":"Bone.001",
			"rotation":[
				0,
				-0.7071067690849304,
				-0.7071067690849304,
				0
			],
			"translation":[
				-0.0036229677498340607,
				0.14481231570243835,
				-3.297626495361328
			]
		},
		{
			"name":"Bone.015",
			"rotation":[
				0.026333115994930267,
				0.000228045042604208,
				-0.008311236277222633,
				0.999618649482727
			],
			"scale":[
				1,
				0.9999999403953552,
				1
			],
			"translation":[
				-6.639311322942376e-10,
				0.509911835193634,
				-2.8392605599947274e-08
			]
		},
		{
			"name":"Bone.019",
			"rotation":[
				0.0411294549703598,
				0.003913316410034895,
				0.07098433375358582,
				0.9966214299201965
			],
			"scale":[
				0.9999999403953552,
				1.0000001192092896,
				1.0000001192092896
			],
			"translation":[
				-2.60770320892334e-07,
				0.7252086400985718,
				3.3527612686157227e-08
			]
		},
		{
			"children":[
				15
			],
			"name":"Bone.018",
			"rotation":[
				0.023387443274259567,
				-0.002218264155089855,
				-0.07682304084300995,
				0.9967679381370544
			],
			"scale":[
				0.9999999403953552,
				1,
				1
			],
			"translation":[
				1.2246891856193542e-07,
				0.6368371844291687,
				-1.3271346688270569e-08
			]
		},
		{
			"children":[
				16
			],
			"name":"Bone.017",
			"rotation":[
				0.0036899952683597803,
				1.4911561763142345e-08,
				0.05771039053797722,
				0.9983265995979309
			],
			"scale":[
				0.9999999403953552,
				0.9999999403953552,
				1
			],
			"translation":[
				8.940696716308594e-08,
				0.31107398867607117,
				-1.1175870895385742e-08
			]
		},
		{
			"children":[
				17
			],
			"name":"Bone.016",
			"rotation":[
				-0.015543634071946144,
				-2.4034505941017414e-08,
				-0.8331120014190674,
				0.552885890007019
			],
			"scale":[
				1.0000001192092896,
				1.0000001192092896,
				1
			],
			"translation":[
				-6.639311322942376e-10,
				0.509911835193634,
				-2.8392605599947274e-08
			]
		},
		{
			"name":"Bone.023",
			"rotation":[
				0.09981414675712585,
				0.003166347974911332,
				0.01958683878183365,
				0.9948083162307739
			],
			"translation":[
				1.471489667892456e-07,
				0.5587402582168579,
				5.587935447692871e-09
			]
		},
		{
			"children":[
				19
			],
			"name":"Bone.022",
			"rotation":[
				0.016174254938960075,
				0.0007338059949688613,
				0.05035625398159027,
				0.9986001253128052
			],
			"scale":[
				1,
				0.9999998211860657,
				1
			],
			"translation":[
				-4.936009645462036e-08,
				0.7754000425338745,
				7.683411240577698e-09
			]
		},
		{
			"children":[
				20
			],
			"name":"Bone.021",
			"rotation":[
				0.0012666871771216393,
				-1.9795238781483704e-09,
				-0.021601339802145958,
				0.999765932559967
			],
			"translation":[
				-5.727633833885193e-08,
				0.3324388563632965,
				4.656612873077393e-10
			]
		},
		{
			"children":[
				21
			],
			"name":"Bone.020",
			"rotation":[
				-0.011652347631752491,
				-4.827969579679348e-09,
				0.819831371307373,
				0.5724865198135376
			],
			"scale":[
				1,
				1,
				1.0000001192092896
			],
			"translation":[
				-6.639311322942376e-10,
				0.509911835193634,
				-2.8392605599947274e-08
			]
		},
		{
			"children":[
				14,
				18,
				22
			],
			"name":"Bone.014",
			"rotation":[
				0.24565783143043518,
				-0.004015651997178793,
				-0.026424352079629898,
				0.9689880609512329
			],
			"scale":[
				0.9999999403953552,
				0.9999999403953552,
				1
			],
			"translation":[
				9.313225746154785e-09,
				0.3627399206161499,
				9.277573553845286e-08
			]
		},
		{
			"children":[
				23
			],
			"name":"Bone.013",
			"rotation":[
				-0.2657792866230011,
				0.004859562497586012,
				0.02323896810412407,
				0.9637415409088135
			],
			"scale":[
				1.0000001192092896,
				1,
				1
			],
			"translation":[
				5.382947559917639e-11,
				0.4146154522895813,
				-5.463823282703117e-10
			]
		},
		{
			"children":[
				24
			],
			"name":"Bone.012",
			"rotation":[
				-0.7071033716201782,
				0.002182397525757551,
				0.002182397525757551,
				0.7071034908294678
			],
			"scale":[
				0.9999999403953552,
				0.9999999403953552,
				1
			],
			"translation":[
				-0.0036229677498340607,
				0.14481231570243835,
				-3.297626495361328
			]
		},
		{
			"name":"neutral_bone",
			"rotation":[
				-0.7071067690849304,
				0,
				0,
				0.7071067690849304
			]
		},
		{
			"mesh":0,
			"name":"ANDROID_17__0",
			"skin":0
		},
		{
			"name":"RootNode",
			"rotation":[
				-0.7071068286895752,
				0,
				0,
				0.7071068286895752
			],
			"scale":[
				0.06276792287826538,
				0.06276792287826538,
				0.06276792287826538
			],
			"translation":[
				-0.01309027336537838,
				0.05548219755291939,
				-4.249469757080078
			]
		},
		{
			"name":"Sketchfab_model",
			"rotation":[
				1,
				0,
				0,
				8.903511172775325e-08
			],
			"scale":[
				0.019223421812057495,
				0.019223423674702644,
				0.019223423674702644
			],
			"translation":[
				-0.01309027336537838,
				0.05548219755291939,
				-4.249469757080078
			]
		},
		{
			"children":[
				0,
				1,
				27,
				28,
				29,
				2,
				13,
				25,
				26
			],
			"name":"Armature",
			"rotation":[
				0.7071068286895752,
				0,
				0,
				0.7071068286895752
			],
			"scale":[
				15.9317045211792,
				15.9317045211792,
				15.9317045211792
			],
			"translation":[
				0.20855039358139038,
				-67.70130920410156,
				-0.8839288353919983
			]
		}
	],
	"materials":[
		{
			"doubleSided":true,
			"name":"Scene_-_Root",
			"pbrMetallicRoughness":{
				"baseColorFactor":[
					0.33486127853393555,
					0.3233615756034851,
					0.3233615756034851,
					1
				],
				"metallicFactor":0,
				"roughnessFactor":0
			}
		}
	],
	"meshes":[
		{
			"name":"ANDROID_17__0",
			"primitives":[
				{
					"attributes":{
						"POSITION":0,
						"NORMAL":1,
						"TEXCOORD_0":2,
						"JOINTS_0":3,
						"WEIGHTS_0":4
					},
					"indices":5,
					"material":0
				}
			]
		}
	],
	"skins":[
		{
			"inverseBindMatrices":6,
			"joints":[
				2,
				13,
				7,
				6,
				5,
				4,
				3,
				12,
				11,
				10,
				9,
				8,
				25,
				24,
				23,
				14,
				18,
				17,
				16,
				15,
				22,
				21,
				20,
				19,
				26
			],
			"name":"Armature"
		}
	],
	"accessors":[
		{
			"bufferView":0,
			"componentType":5126,
			"count":11431,
			"max":[
				35.665077209472656,
				28.44415855407715,
				6.602921485900879
			],
			"min":[
				-35.665077209472656,
				-74.95014953613281,
				-6.255765914916992
			],
			"type":"VEC3"
		},
		{
			"bufferView":1,
			"componentType":5126,
			"count":11431,
			"type":"VEC3"
		},
		{
			"bufferView":2,
			"componentType":5126,
			"count":11431,
			"type":"VEC2"
		},
		{
			"bufferView":3,
			"componentType":5121,
			"count":11431,
			"type":"VEC4"
		},
		{
			"bufferView":4,
			"componentType":5126,
			"count":11431,
			"type":"VEC4"
		},
		{
			"bufferView":5,
			"componentType":5123,
			"count":67056,
			"type":"SCALAR"
		},
		{
			"bufferView":6,
			"componentType":5126,
			"count":25,
			"type":"MAT4"
		}
	],
	"bufferViews":[
		{
			"buffer":0,
			"byteLength":137172,
			"byteOffset":0,
			"target":34962
		},
		{
			"buffer":0,
			"byteLength":137172,
			"byteOffset":137172,
			"target":34962
		},
		{
			"buffer":0,
			"byteLength":91448,
			"byteOffset":274344,
			"target":34962
		},
		{
			"buffer":0,
			"byteLength":45724,
			"byteOffset":365792,
			"target":34962
		},
		{
			"buffer":0,
			"byteLength":182896,
			"byteOffset":411516,
			"target":34962
		},
		{
			"buffer":0,
			"byteLength":134112,
			"byteOffset":594412,
			"target":34963
		},
		{
			"buffer":0,
			"byteLength":1600,
			"byteOffset":728524
		}
	],
	"buffers":[
		{
			"byteLength":730124,
			"uri":"rigg.bin"
		}
	]
}
