{
	"asset":{
		"generator":"Khronos glTF Blender I/O v4.3.47",
		"version":"2.0"
	},
	"extensionsUsed":[
		"KHR_materials_transmission",
		"KHR_materials_specular",
		"KHR_materials_ior"
	],
	"scene":0,
	"scenes":[
		{
			"name":"Scene",
			"nodes":[
				0
			]
		}
	],
	"nodes":[
		{
			"mesh":0,
			"name":"sword",
			"rotation":[
				0.7071068286895752,
				0,
				0,
				0.7071068286895752
			]
		}
	],
	"materials":[
		{
			"doubleSided":true,
			"extensions":{
				"KHR_materials_transmission":{
					"transmissionFactor":1
				},
				"KHR_materials_specular":{
					"specularFactor":0
				},
				"KHR_materials_ior":{
					"ior":1
				}
			},
			"name":"lambert4SG",
			"pbrMetallicRoughness":{
				"baseColorTexture":{
					"index":0
				},
				"metallicFactor":0
			}
		},
		{
			"doubleSided":true,
			"extensions":{
				"KHR_materials_transmission":{
					"transmissionFactor":1
				},
				"KHR_materials_ior":{
					"ior":1
				}
			},
			"name":"blinn1SG",
			"pbrMetallicRoughness":{
				"baseColorFactor":[
					0.5,
					0.5,
					0.5,
					1
				],
				"metallicFactor":0
			}
		},
		{
			"doubleSided":true,
			"extensions":{
				"KHR_materials_transmission":{
					"transmissionFactor":1
				},
				"KHR_materials_specular":{
					"specularFactor":0
				},
				"KHR_materials_ior":{
					"ior":1
				}
			},
			"name":"lambert2SG",
			"pbrMetallicRoughness":{
				"baseColorFactor":[
					0.5,
					0.5,
					0.5,
					1
				],
				"metallicFactor":0
			}
		},
		{
			"doubleSided":true,
			"extensions":{
				"KHR_materials_transmission":{
					"transmissionFactor":1
				},
				"KHR_materials_specular":{
					"specularFactor":0
				},
				"KHR_materials_ior":{
					"ior":1
				}
			},
			"name":"lambert3SG",
			"pbrMetallicRoughness":{
				"baseColorFactor":[
					0.5,
					0.5,
					0.5,
					1
				],
				"metallicFactor":0
			}
		}
	],
	"meshes":[
		{
			"name":"sword",
			"primitives":[
				{
					"attributes":{
						"POSITION":0,
						"NORMAL":1,
						"TEXCOORD_0":2
					},
					"indices":3,
					"material":0
				},
				{
					"attributes":{
						"POSITION":4,
						"NORMAL":5,
						"TEXCOORD_0":6
					},
					"indices":7,
					"material":1
				},
				{
					"attributes":{
						"POSITION":8,
						"NORMAL":9,
						"TEXCOORD_0":10
					},
					"indices":11,
					"material":2
				},
				{
					"attributes":{
						"POSITION":12,
						"NORMAL":13,
						"TEXCOORD_0":14
					},
					"indices":15,
					"material":3
				}
			]
		}
	],
	"textures":[
		{
			"sampler":0,
			"source":0
		}
	],
	"images":[
		{
			"mimeType":"image/png",
			"name":"lambert4SG Base Color",
			"uri":"lambert4SG%20Base%20Color.png"
		}
	],
	"accessors":[
		{
			"bufferView":0,
			"componentType":5126,
			"count":1401,
			"max":[
				0.06870300322771072,
				9.469369888305664,
				-0.04873400181531906
			],
			"min":[
				-0.06857399642467499,
				-3.439215898513794,
				-10.85643482208252
			],
			"type":"VEC3"
		},
		{
			"bufferView":1,
			"componentType":5126,
			"count":1401,
			"type":"VEC3"
		},
		{
			"bufferView":2,
			"componentType":5126,
			"count":1401,
			"type":"VEC2"
		},
		{
			"bufferView":3,
			"componentType":5123,
			"count":6240,
			"type":"SCALAR"
		},
		{
			"bufferView":4,
			"componentType":5126,
			"count":5125,
			"max":[
				0.14692999422550201,
				9.417774200439453,
				-0.11794599890708923
			],
			"min":[
				-0.14692999422550201,
				-3.4317400455474854,
				-10.85643482208252
			],
			"type":"VEC3"
		},
		{
			"bufferView":5,
			"componentType":5126,
			"count":5125,
			"type":"VEC3"
		},
		{
			"bufferView":6,
			"componentType":5126,
			"count":5125,
			"type":"VEC2"
		},
		{
			"bufferView":7,
			"componentType":5123,
			"count":24864,
			"type":"SCALAR"
		},
		{
			"bufferView":8,
			"componentType":5126,
			"count":1412,
			"max":[
				0.471998006105423,
				-2.3668999671936035,
				-9.64404010772705
			],
			"min":[
				-0.471998006105423,
				-8.218552589416504,
				-15.20409107208252
			],
			"type":"VEC3"
		},
		{
			"bufferView":9,
			"componentType":5126,
			"count":1412,
			"type":"VEC3"
		},
		{
			"bufferView":10,
			"componentType":5126,
			"count":1412,
			"type":"VEC2"
		},
		{
			"bufferView":11,
			"componentType":5123,
			"count":6432,
			"type":"SCALAR"
		},
		{
			"bufferView":12,
			"componentType":5126,
			"count":6352,
			"max":[
				0.49457600712776184,
				-3.223644971847534,
				-10.719362258911133
			],
			"min":[
				-0.49457600712776184,
				-7.177044868469238,
				-14.371636390686035
			],
			"type":"VEC3"
		},
		{
			"bufferView":13,
			"componentType":5126,
			"count":6352,
			"type":"VEC3"
		},
		{
			"bufferView":14,
			"componentType":5126,
			"count":6352,
			"type":"VEC2"
		},
		{
			"bufferView":15,
			"componentType":5123,
			"count":30960,
			"type":"SCALAR"
		}
	],
	"bufferViews":[
		{
			"buffer":0,
			"byteLength":16812,
			"byteOffset":0,
			"target":34962
		},
		{
			"buffer":0,
			"byteLength":16812,
			"byteOffset":16812,
			"target":34962
		},
		{
			"buffer":0,
			"byteLength":11208,
			"byteOffset":33624,
			"target":34962
		},
		{
			"buffer":0,
			"byteLength":12480,
			"byteOffset":44832,
			"target":34963
		},
		{
			"buffer":0,
			"byteLength":61500,
			"byteOffset":57312,
			"target":34962
		},
		{
			"buffer":0,
			"byteLength":61500,
			"byteOffset":118812,
			"target":34962
		},
		{
			"buffer":0,
			"byteLength":41000,
			"byteOffset":180312,
			"target":34962
		},
		{
			"buffer":0,
			"byteLength":49728,
			"byteOffset":221312,
			"target":34963
		},
		{
			"buffer":0,
			"byteLength":16944,
			"byteOffset":271040,
			"target":34962
		},
		{
			"buffer":0,
			"byteLength":16944,
			"byteOffset":287984,
			"target":34962
		},
		{
			"buffer":0,
			"byteLength":11296,
			"byteOffset":304928,
			"target":34962
		},
		{
			"buffer":0,
			"byteLength":12864,
			"byteOffset":316224,
			"target":34963
		},
		{
			"buffer":0,
			"byteLength":76224,
			"byteOffset":329088,
			"target":34962
		},
		{
			"buffer":0,
			"byteLength":76224,
			"byteOffset":405312,
			"target":34962
		},
		{
			"buffer":0,
			"byteLength":50816,
			"byteOffset":481536,
			"target":34962
		},
		{
			"buffer":0,
			"byteLength":61920,
			"byteOffset":532352,
			"target":34963
		}
	],
	"samplers":[
		{
			"magFilter":9729,
			"minFilter":9987
		}
	],
	"buffers":[
		{
			"byteLength":594272,
			"uri":"sword.bin"
		}
	]
}
