{
	"asset":{
		"generator":"Khronos glTF Blender I/O v4.3.47",
		"version":"2.0"
	},
	"extensionsUsed":[
		"KHR_materials_emissive_strength",
		"KHR_materials_unlit"
	],
	"scene":0,
	"scenes":[
		{
			"name":"Scene",
			"nodes":[
				0,
				1,
				2,
				3,
				4
			]
		}
	],
	"nodes":[
		{
			"mesh":0,
			"name":"Cube",
			"rotation":[
				0,
				-0.9993641376495361,
				0,
				0.03565584868192673
			],
			"scale":[
				14.407730102539062,
				3.592292308807373,
				17.944686889648438
			],
			"translation":[
				-1.660252332687378,
				3.327648639678955,
				2.7701821327209473
			]
		},
		{
			"mesh":1,
			"name":"ground",
			"rotation":[
				0,
				-0.019913572818040848,
				0,
				0.999801754951477
			],
			"scale":[
				63.196327209472656,
				63.196327209472656,
				63.196327209472656
			],
			"translation":[
				0,
				0.18321013450622559,
				0
			]
		},
		{
			"mesh":2,
			"name":"light_3",
			"rotation":[
				0.43047034740448,
				0.6321603655815125,
				0.40438583493232727,
				0.5015382766723633
			],
			"scale":[
				50.82329559326172,
				44.54160690307617,
				44.54161071777344
			],
			"translation":[
				-9.161311149597168,
				24.63132095336914,
				139.08612060546875
			]
		},
		{
			"mesh":3,
			"name":"light_1",
			"rotation":[
				0.1312771886587143,
				-0.15634585916996002,
				-0.5989589691162109,
				0.7743193507194519
			],
			"scale":[
				34.02069854736328,
				29.81578826904297,
				29.81578826904297
			],
			"translation":[
				89.4995346069336,
				16.530118942260742,
				16.65821075439453
			]
		},
		{
			"mesh":4,
			"name":"light_2",
			"rotation":[
				-0.28861668705940247,
				0.5326390862464905,
				-0.3801124393939972,
				0.6989352703094482
			],
			"scale":[
				34.680580139160156,
				30.39410972595215,
				30.39410972595215
			],
			"translation":[
				5.133749961853027,
				24.63132095336914,
				-140.8044891357422
			]
		}
	],
	"materials":[
		{
			"doubleSided":true,
			"name":"cottage_texture"
		},
		{
			"doubleSided":true,
			"extensions":{
				"KHR_materials_unlit":{}
			},
			"name":"ground",
			"pbrMetallicRoughness":{
				"metallicFactor":0,
				"roughnessFactor":0.9
			}
		},
		{
			"doubleSided":true,
			"emissiveFactor":[
				1,
				1,
				1
			],
			"extensions":{
				"KHR_materials_emissive_strength":{
					"emissiveStrength":5.600000083446503
				}
			},
			"name":"light 1",
			"pbrMetallicRoughness":{
				"baseColorFactor":[
					0,
					0,
					0,
					1
				]
			}
		}
	],
	"meshes":[
		{
			"name":"Cube.002",
			"primitives":[
				{
					"attributes":{
						"POSITION":0,
						"NORMAL":1,
						"TEXCOORD_0":2
					},
					"indices":3,
					"material":0
				}
			]
		},
		{
			"name":"Plane.004",
			"primitives":[
				{
					"attributes":{
						"POSITION":4,
						"NORMAL":5
					},
					"indices":6,
					"material":1
				}
			]
		},
		{
			"name":"Plane.003",
			"primitives":[
				{
					"attributes":{
						"POSITION":7,
						"NORMAL":8
					},
					"indices":6,
					"material":2
				}
			]
		},
		{
			"name":"Plane.002",
			"primitives":[
				{
					"attributes":{
						"POSITION":9,
						"NORMAL":10
					},
					"indices":6,
					"material":2
				}
			]
		},
		{
			"name":"Plane.001",
			"primitives":[
				{
					"attributes":{
						"POSITION":11,
						"NORMAL":12
					},
					"indices":6,
					"material":2
				}
			]
		}
	],
	"accessors":[
		{
			"bufferView":0,
			"componentType":5126,
			"count":697,
			"max":[
				1.2217717170715332,
				3.084787368774414,
				1.1487441062927246
			],
			"min":[
				-1.148742437362671,
				-1.0000001192092896,
				-1.165095329284668
			],
			"type":"VEC3"
		},
		{
			"bufferView":1,
			"componentType":5126,
			"count":697,
			"type":"VEC3"
		},
		{
			"bufferView":2,
			"componentType":5126,
			"count":697,
			"type":"VEC2"
		},
		{
			"bufferView":3,
			"componentType":5123,
			"count":1434,
			"type":"SCALAR"
		},
		{
			"bufferView":4,
			"componentType":5126,
			"count":4,
			"max":[
				1,
				0,
				1
			],
			"min":[
				-1,
				0,
				-1
			],
			"type":"VEC3"
		},
		{
			"bufferView":5,
			"componentType":5126,
			"count":4,
			"type":"VEC3"
		},
		{
			"bufferView":6,
			"componentType":5123,
			"count":6,
			"type":"SCALAR"
		},
		{
			"bufferView":7,
			"componentType":5126,
			"count":4,
			"max":[
				1,
				0,
				1
			],
			"min":[
				-1,
				0,
				-1
			],
			"type":"VEC3"
		},
		{
			"bufferView":8,
			"componentType":5126,
			"count":4,
			"type":"VEC3"
		},
		{
			"bufferView":9,
			"componentType":5126,
			"count":4,
			"max":[
				1,
				0,
				1
			],
			"min":[
				-1,
				0,
				-1
			],
			"type":"VEC3"
		},
		{
			"bufferView":10,
			"componentType":5126,
			"count":4,
			"type":"VEC3"
		},
		{
			"bufferView":11,
			"componentType":5126,
			"count":4,
			"max":[
				1,
				0,
				1
			],
			"min":[
				-1,
				0,
				-1
			],
			"type":"VEC3"
		},
		{
			"bufferView":12,
			"componentType":5126,
			"count":4,
			"type":"VEC3"
		}
	],
	"bufferViews":[
		{
			"buffer":0,
			"byteLength":8364,
			"byteOffset":0,
			"target":34962
		},
		{
			"buffer":0,
			"byteLength":8364,
			"byteOffset":8364,
			"target":34962
		},
		{
			"buffer":0,
			"byteLength":5576,
			"byteOffset":16728,
			"target":34962
		},
		{
			"buffer":0,
			"byteLength":2868,
			"byteOffset":22304,
			"target":34963
		},
		{
			"buffer":0,
			"byteLength":48,
			"byteOffset":25172,
			"target":34962
		},
		{
			"buffer":0,
			"byteLength":48,
			"byteOffset":25220,
			"target":34962
		},
		{
			"buffer":0,
			"byteLength":12,
			"byteOffset":25268,
			"target":34963
		},
		{
			"buffer":0,
			"byteLength":48,
			"byteOffset":25280,
			"target":34962
		},
		{
			"buffer":0,
			"byteLength":48,
			"byteOffset":25328,
			"target":34962
		},
		{
			"buffer":0,
			"byteLength":48,
			"byteOffset":25376,
			"target":34962
		},
		{
			"buffer":0,
			"byteLength":48,
			"byteOffset":25424,
			"target":34962
		},
		{
			"buffer":0,
			"byteLength":48,
			"byteOffset":25472,
			"target":34962
		},
		{
			"buffer":0,
			"byteLength":48,
			"byteOffset":25520,
			"target":34962
		}
	],
	"buffers":[
		{
			"byteLength":25568,
			"uri":"cottage_blender.bin"
		}
	]
}
